#!OML:ASF Y:\EmotionMaleHayes\Project 1\Capture day 1\Session 1\Male1.ASF
:FULLY-SPECIFIED
:DEGREES
894
root 6.0332 17.5654 0.425553 -245.271 87.0651 -242.76
lowerback 17.6756 1.00881 -3.85012
upperback 2.6199 0.752678 -0.00467157
thorax -7.13216 0.528378 1.9984
lowerneck -28.22 1.0482 1.83833
upperneck 16.2811 0.473315 1.03168
head 9.74615 0.476641 0.150352
rclavicle -3.55328e-015 -4.37326e-015
rhumerus -53.8776 31.0567 -81.3953
rradius 78.1444
rwrist -26.2465
rhand 6.53147 -40.7883
rfingers 7.12502
rthumb 31.8296 -68.0282
lclavicle -3.55328e-015 -4.37326e-015
lhumerus -54.5752 -35.9745 90.966
lradius 74.9269
lwrist 24.4509
lhand 6.21273 -19.3113
lfingers 7.12502
lthumb 31.526 7.98861
rfemur 4.78433 -6.29337 9.43164
rtibia 12.1317
rfoot -16.2055 -2.51208
rtoes 1.67207
lfemur 6.33765 2.12858 -12.914
ltibia 7.56705
lfoot -13.2889 4.56493
ltoes -6.1597
895
root 6.06018 17.5779 0.436199 -247.778 86.8842 -245.157
lowerback 17.3397 1.01311 -4.11904
upperback 2.54608 0.711516 -0.0624412
thorax -7.02824 0.511358 2.10127
lowerneck -28.4754 1.08453 1.82472
upperneck 16.3589 0.501279 1.11686
head 9.81614 0.501112 0.189183
rclavicle -4.29872e-015 -8.15017e-015
rhumerus -54.2508 31.6005 -79.9824
rradius 78.8346
rwrist -26.6582
rhand 6.82657 -40.5081
rfingers 7.12502
rthumb 32.1106 -67.6918
lclavicle -4.29872e-015 -8.15017e-015
lhumerus -55.0477 -36.3642 89.485
lradius 75.3842
lwrist 25.0765
lhand 5.85978 -19.0474
lfingers 7.12502
lthumb 31.1897 8.31771
rfemur 5.54841 -6.19305 9.14178
rtibia 11.1942
rfoot -15.9136 -2.34866
rtoes 2.92608
lfemur 7.11638 2.13086 -13.0982
ltibia 6.50771
lfoot -12.8564 4.74134
ltoes -6.23003
896
root 6.08441 17.5924 0.445325 -246.938 86.9133 -244.174
lowerback 17.2725 0.94911 -4.0898
upperback 2.34892 0.622449 -0.051612
thorax -7.19861 0.469594 2.11668
lowerneck -28.4697 0.998656 1.55733
upperneck 16.3142 0.402623 1.50673
head 9.79801 0.487811 0.355113
rclavicle 4.47266e-016 -1.47101e-014
rhumerus -54.7839 32.3065 -78.6089
rradius 79.5024
rwrist -26.9871
rhand 7.20679 -40.3142
rfingers 7.12502
rthumb 32.4725 -67.4243
lclavicle 4.47266e-016 -1.47101e-014
lhumerus -55.696 -36.6073 87.9642
lradius 75.8914
lwrist 25.5595
lhand 5.75398 -18.7877
lfingers 7.12502
lthumb 31.0889 8.59683
rfemur 6.2823 -6.16948 9.19088
rtibia 10.2769
rfoot -15.6177 -2.41732
rtoes 2.64608
lfemur 7.87149 1.91279 -13.0214
ltibia 5.51281
lfoot -12.5778 4.962
ltoes -5.94763
897
root 6.10765 17.606 0.455266 -243.954 87.1424 -241.144
lowerback 17.1159 0.840963 -3.85245
upperback 2.13226 0.520256 0.0166507
thorax -7.33924 0.415275 2.07922
lowerneck -28.2425 0.953745 1.50851
upperneck 15.9942 0.343319 1.63878
head 9.64578 0.470955 0.397468
rclavicle -6.01324e-015 1.09332e-015
rhumerus -55.2301 33.2264 -77.2407
rradius 79.985
rwrist -27.354
rhand 7.24165 -39.8217
rfingers 7.12502
rthumb 32.5057 -66.925
lclavicle -6.01324e-015 1.09332e-015
lhumerus -56.2846 -36.8159 86.3007
lradius 76.3295
lwrist 25.9692
lhand 5.8037 -18.6003
lfingers 7.12502
lthumb 31.1363 8.7751
rfemur 6.90271 -6.24231 9.49771
rtibia 9.34359
rfoot -15.301 -2.48657
rtoes 2.27386
lfemur 8.45365 1.52478 -12.717
ltibia 4.62694
lfoot -12.4839 5.27345
ltoes -5.86101
898
root 6.13283 17.6163 0.465039 -243.654 87.1005 -240.848
lowerback 16.7549 0.774208 -3.94512
upperback 1.98705 0.418544 0.0066824
thorax -7.29188 0.36597 2.14588
lowerneck -28.0207 1.00825 1.78177
upperneck 15.6692 0.390703 1.33559
head 9.49402 0.468836 0.250887
rclavicle 4.12478e-015 -1.55052e-014
rhumerus -55.6019 34.1172 -75.7622
rradius 80.4383
rwrist -27.7776
rhand 6.92631 -39.0787
rfingers 7.12502
rthumb 32.2056 -66.2432
lclavicle 4.12478e-015 -1.55052e-014
lhumerus -56.6655 -37.2466 84.5203
lradius 76.5884
lwrist 26.7091
lhand 5.72706 -18.25
lfingers 7.12502
lthumb 31.0632 9.13936
rfemur 7.52883 -6.39252 9.35141
rtibia 8.40487
rfoot -14.9699 -2.22132
rtoes 3.71432
lfemur 8.96857 1.18523 -12.7953
ltibia 3.80648
lfoot -12.4976 5.50491
ltoes -5.69392
899
root 6.15684 17.6245 0.47243 -243.123 87.0014 -240.246
lowerback 16.483 0.716323 -4.03314
upperback 1.90424 0.330594 -0.00623327
thorax -7.2262 0.323419 2.20264
lowerneck -28.0391 1.04712 1.90295
upperneck 15.4741 0.439812 1.15589
head 9.42792 0.475467 0.175034
rclavicle 5.96354e-015 -1.76918e-014
rhumerus -56.0372 34.8501 -74.0892
rradius 81.1314
rwrist -28.18
rhand 6.85192 -38.9521
rfingers 7.12502
rthumb 32.1347 -66.1309
lclavicle 5.96354e-015 -1.76918e-014
lhumerus -56.8519 -37.773 82.5945
lradius 76.8036
lwrist 27.4706
lhand 5.73205 -17.7492
lfingers 7.12502
lthumb 31.068 9.63931
rfemur 8.15844 -6.66554 9.095
rtibia 7.66374
rfoot -14.6867 -1.84181
rtoes 4.25342
lfemur 9.55389 0.958909 -12.9049
ltibia 2.98075
lfoot -12.4827 5.58492
ltoes -5.31501
900
root 6.17782 17.6321 0.481166 -241.393 87.0427 -238.456
lowerback 16.3139 0.662176 -3.97294
upperback 1.75261 0.269128 0.0242387
thorax -7.29242 0.292621 2.21516
lowerneck -27.9374 1.05718 1.96271
upperneck 15.2376 0.443089 1.13344
head 9.32754 0.47606 0.156721
rclavicle -2.67117e-015 8.74653e-015
rhumerus -56.5351 35.6242 -72.3087
rradius 81.8512
rwrist -28.6016
rhand 6.9664 -39.0148
rfingers 7.12502
rthumb 32.2437 -66.1715
lclavicle -2.67117e-015 8.74653e-015
lhumerus -57.118 -38.2984 80.6502
lradius 76.9373
lwrist 27.9844
lhand 5.65871 -17.6048
lfingers 7.12502
lthumb 30.9981 9.79709
rfemur 8.60963 -6.88097 9.08902
rtibia 7.14854
rfoot -14.4568 -1.67045
rtoes 3.52376
lfemur 10.0538 0.754896 -12.8041
ltibia 2.30063
lfoot -12.4751 5.63792
ltoes -4.70496
901
root 6.19938 17.6403 0.487766 -242.192 86.9078 -239.307
lowerback 16.0321 0.64567 -4.12374
upperback 1.52816 0.215254 -0.0148288
thorax -7.37584 0.271133 2.27116
lowerneck -27.6395 1.03287 1.96476
upperneck 14.9998 0.409757 1.19075
head 9.19499 0.464936 0.168948
rclavicle 4.5969e-016 -1.19271e-014
rhumerus -56.8442 36.4985 -70.4591
rradius 82.248
rwrist -29.0811
rhand 6.97914 -38.7182
rfingers 7.12502
rthumb 32.2558 -65.8725
lclavicle 4.5969e-016 -1.19271e-014
lhumerus -57.4316 -38.896 78.7627
lradius 76.8626
lwrist 28.3355
lhand 5.41487 -17.8265
lfingers 7.12502
lthumb 30.7656 9.61939
rfemur 8.87073 -7.06258 8.83385
rtibia 6.75508
rfoot -14.239 -1.48685
rtoes 3.52184
lfemur 10.4016 0.400321 -13.0621
ltibia 1.71456
lfoot -12.4939 5.90809
ltoes -4.11945
902
root 6.22431 17.6466 0.489828 -242.761 86.7094 -239.906
lowerback 15.7068 0.62341 -4.30183
upperback 1.37374 0.158905 -0.017667
thorax -7.35888 0.248122 2.38167
lowerneck -27.5753 1.01016 1.79602
upperneck 14.8828 0.441882 1.21307
head 9.14266 0.470932 0.207792
rclavicle -1.6524e-015 -1.98785e-015
rhumerus -56.8278 37.3272 -68.3639
rradius 82.4229
rwrist -29.4929
rhand 7.22137 -38.5686
rfingers 7.12502
rthumb 32.4864 -65.6758
lclavicle -1.6524e-015 -1.98785e-015
lhumerus -57.5406 -39.4041 76.8056
lradius 76.7448
lwrist 28.4609
lhand 5.32394 -17.8737
lfingers 7.12502
lthumb 30.6789 9.58851
rfemur 9.26148 -7.43657 8.42632
rtibia 6.25206
rfoot -13.9541 -1.11721
rtoes 3.86282
lfemur 10.7719 0.0780533 -13.4149
ltibia 1.08375
lfoot -12.3633 6.2749
ltoes -4.71509
903
root 6.25109 17.651 0.494684 -240.996 86.6549 -238.074
lowerback 15.4484 0.591143 -4.34818
upperback 1.27684 0.120359 0.0748822
thorax -7.31752 0.230656 2.51534
lowerneck -27.6313 1.00026 1.80367
upperneck 14.8543 0.472151 0.98815
head 9.14165 0.457667 0.132458
rclavicle -2.06239e-015 -1.2921e-014
rhumerus -56.7709 37.9881 -66.1035
rradius 82.6176
rwrist -29.913
rhand 7.46003 -38.418
rfingers 7.12502
rthumb 32.7135 -65.4782
lclavicle -2.06239e-015 -1.2921e-014
lhumerus -57.531 -39.8985 74.7595
lradius 76.5518
lwrist 28.354
lhand 5.09147 -17.8626
lfingers 7.12502
lthumb 30.4572 9.64087
rfemur 9.8381 -7.91757 8.20878
rtibia 5.61061
rfoot -13.6235 -0.708921
rtoes 3.85026
lfemur 11.2054 -0.0913294 -13.4424
ltibia 0.518749
lfoot -12.1649 6.41088
ltoes -5.53753
904
root 6.27546 17.656 0.503057 -237.169 86.7821 -234.178
lowerback 15.1893 0.55458 -4.17804
upperback 1.21405 0.115844 0.181524
thorax -7.24064 0.222216 2.53361
lowerneck -27.7471 0.962576 1.93997
upperneck 14.8355 0.409464 0.789252
head 9.15402 0.412786 0.0318056
rclavicle 2.13694e-015 1.43125e-014
rhumerus -56.701 38.4537 -63.7967
rradius 82.8588
rwrist -30.5353
rhand 7.41222 -38.2943
rfingers 7.12502
rthumb 32.668 -65.364
lclavicle 2.13694e-015 1.43125e-014
lhumerus -57.2579 -40.4555 72.4844
lradius 76.1428
lwrist 28.3169
lhand 4.87873 -17.8826
lfingers 7.12502
lthumb 30.2543 9.65831
rfemur 10.3362 -8.21482 8.34841
rtibia 5.062
rfoot -13.4205 -0.466907
rtoes 3.84724
lfemur 11.616 -0.216052 -13.1248
ltibia -0.00270677
lfoot -12.0064 6.31896
ltoes -4.87927
905
root 6.29375 17.6616 0.511796 -233.382 86.8216 -230.431
lowerback 14.9004 0.497925 -4.03746
upperback 1.11134 0.0735164 0.225351
thorax -7.18711 0.196062 2.5092
lowerneck -27.9193 0.924154 1.9781
upperneck 14.8572 0.350657 0.732944
head 9.18925 0.381671 -0.00232006
rclavicle 2.5842e-015 1.11319e-014
rhumerus -56.5006 38.8231 -61.4502
rradius 82.9426
rwrist -31.0835
rhand 7.707 -38.5031
rfingers 7.12502
rthumb 32.9484 -65.5142
lclavicle 2.5842e-015 1.11319e-014
lhumerus -56.832 -40.9883 70.0327
lradius 75.6501
lwrist 28.56
lhand 5.01469 -17.7967
lfingers 7.12502
lthumb 30.384 9.72033
rfemur 10.6075 -8.25317 8.54282
rtibia 4.63663
rfoot -13.3323 -0.53279
rtoes 3.77265
lfemur 11.7926 -0.296865 -12.8801
ltibia -0.415114
lfoot -11.8111 6.22201
ltoes -4.41673
906
root 6.30645 17.6662 0.519052 -232.625 86.6333 -229.729
lowerback 14.7407 0.453069 -4.15613
upperback 0.933225 -0.0108621 0.192071
thorax -7.28368 0.160514 2.5585
lowerneck -28.0192 0.907585 2.0431
upperneck 14.8895 0.335231 0.569378
head 9.21682 0.358739 -0.0721627
rclavicle 1.73937e-016 -3.18055e-015
rhumerus -56.1804 39.1805 -59.0178
rradius 82.8381
rwrist -31.4168
rhand 8.30225 -38.7802
rfingers 7.12502
rthumb 33.5144 -65.6705
lclavicle 1.73937e-016 -3.18055e-015
lhumerus -56.4588 -41.5368 67.583
lradius 75.0965
lwrist 28.8467
lhand 4.94114 -17.844
lfingers 7.12502
lthumb 30.3138 9.68602
rfemur 10.8137 -8.29212 8.40109
rtibia 4.26775
rfoot -13.2326 -0.624131
rtoes 3.43266
lfemur 11.834 -0.364382 -13.0116
ltibia -0.642025
lfoot -11.6421 6.20463
ltoes -4.60277
